<svg xmlns="http://www.w3.org/2000/svg" width="23" height="21.104" viewBox="0 0 23 21.104">
  <defs>
    <style>
      .cls-1 {
        fill: #d9b9a3;
      }
    </style>
  </defs>
  <g transform="translate(2650.5 -10325)">
    <path id="Icon_ionic-ios-heart" data-name="Icon ionic-ios-heart" class="cls-1" d="M19.452,3.938H19.4a6.107,6.107,0,0,0-5.024,2.6,6.107,6.107,0,0,0-5.024-2.6H9.3a5.82,5.82,0,0,0-5.923,5.65A11.755,11.755,0,0,0,5.9,16.223a43.419,43.419,0,0,0,8.472,7.715,43.419,43.419,0,0,0,8.472-7.715,11.755,11.755,0,0,0,2.528-6.635A5.82,5.82,0,0,0,19.452,3.938Z" transform="translate(-2653.375 10321.563)"/>
    <path id="Icon_ionic-ios-heart_-_윤곽선" data-name="Icon ionic-ios-heart - 윤곽선" class="cls-1" d="M9.3,3.438h.055a6.608,6.608,0,0,1,5.024,2.282A6.608,6.608,0,0,1,19.4,3.438h.053a6.624,6.624,0,0,1,4.534,1.81,5.956,5.956,0,0,1,1.889,4.34,12.307,12.307,0,0,1-2.632,6.941,43.376,43.376,0,0,1-8.586,7.822l-.281.192-.281-.192a43.376,43.376,0,0,1-8.586-7.822A12.307,12.307,0,0,1,2.875,9.587a5.956,5.956,0,0,1,1.889-4.34,6.621,6.621,0,0,1,4.529-1.81Zm5.079,19.889a42.277,42.277,0,0,0,8.077-7.41,11.253,11.253,0,0,0,2.423-6.329,5.336,5.336,0,0,0-5.428-5.15H19.4a5.583,5.583,0,0,0-4.612,2.384l-.412.6-.412-.6A5.583,5.583,0,0,0,9.351,4.438H9.3a5.336,5.336,0,0,0-5.426,5.15A11.253,11.253,0,0,0,6.3,15.917,42.238,42.238,0,0,0,14.375,23.327Z" transform="translate(-2653.375 10321.563)"/>
  </g>
</svg>
